<mxfile host="app.diagrams.net" modified="2023-04-04T19:22:15.311Z" agent="Mozilla/5.0 (Windows NT 10.0; Win64; x64) AppleWebKit/537.36 (KHTML, like Gecko) Chrome/111.0.0.0 Safari/537.36" version="21.1.4" etag="UaRH79agXlRCs8qPiVZY" type="github">
  <diagram name="Page-1" id="ga8h144KBCxEZ6d47N7E">
    <mxGraphModel>
      <root>
        <mxCell id="0" />
        <mxCell id="1" parent="0" />
      </root>
    </mxGraphModel>
  </diagram>
</mxfile>
